{
	"asset":{
		"generator":"Khronos glTF Blender I/O v3.5.30",
		"version":"2.0"
	},
	"extensionsUsed":[
		"KHR_materials_specular"
	],
	"scene":0,
	"scenes":[
		{
			"name":"Scene",
			"nodes":[
				0
			]
		}
	],
	"nodes":[
		{
			"mesh":0,
			"name":"Tuya_Small",
			"rotation":[
				0.7071068286895752,
				0,
				0,
				0.7071068286895752
			]
		}
	],
	"materials":[
		{
			"doubleSided":true,
			"extensions":{
				"KHR_materials_specular":{
					"specularColorFactor":[
						0,
						0,
						0
					]
				}
			},
			"name":"Tuya_Bark_Mat",
			"normalTexture":{
				"index":0
			},
			"pbrMetallicRoughness":{
				"baseColorTexture":{
					"index":1
				},
				"metallicFactor":0,
				"roughnessFactor":0.6422291398048401
			}
		},
		{
			"alphaMode":"BLEND",
			"doubleSided":true,
			"extensions":{
				"KHR_materials_specular":{
					"specularColorFactor":[
						0,
						0,
						0
					]
				}
			},
			"name":"Tuya_Leaf_Brunch_Mat",
			"normalTexture":{
				"index":2
			},
			"pbrMetallicRoughness":{
				"baseColorTexture":{
					"index":3
				},
				"metallicFactor":0,
				"roughnessFactor":0.6422291398048401
			}
		}
	],
	"meshes":[
		{
			"name":"Tuya_Small",
			"primitives":[
				{
					"attributes":{
						"POSITION":0,
						"TEXCOORD_0":1,
						"NORMAL":2
					},
					"indices":3,
					"material":0
				},
				{
					"attributes":{
						"POSITION":4,
						"TEXCOORD_0":5,
						"NORMAL":6
					},
					"indices":7,
					"material":1
				}
			]
		}
	],
	"textures":[
		{
			"sampler":0,
			"source":0
		},
		{
			"sampler":0,
			"source":1
		},
		{
			"sampler":0,
			"source":2
		},
		{
			"sampler":0,
			"source":3
		}
	],
	"images":[
		{
			"mimeType":"image/png",
			"name":"Tuya_Bark_Bump",
			"uri":"Tuya_Bark_Bump.png"
		},
		{
			"mimeType":"image/png",
			"name":"Tuya_Bark",
			"uri":"Tuya_Bark.png"
		},
		{
			"mimeType":"image/png",
			"name":"Tuya_Leaf-Brunch_Bump",
			"uri":"Tuya_Leaf-Brunch_Bump.png"
		},
		{
			"mimeType":"image/png",
			"name":"Tuya_Leaf-Brunch-Tuya_Leaf-Brunch_Opacity",
			"uri":"Tuya_Leaf-Brunch-Tuya_Leaf-Brunch_Opacity.png"
		}
	],
	"accessors":[
		{
			"bufferView":0,
			"componentType":5126,
			"count":1870,
			"max":[
				33.77280044555664,
				34.43080139160156,
				0.2563000023365021
			],
			"min":[
				-35.42570114135742,
				-36.4015998840332,
				-466.9469909667969
			],
			"type":"VEC3"
		},
		{
			"bufferView":1,
			"componentType":5126,
			"count":1870,
			"type":"VEC2"
		},
		{
			"bufferView":2,
			"componentType":5126,
			"count":1870,
			"type":"VEC3"
		},
		{
			"bufferView":3,
			"componentType":5123,
			"count":8598,
			"type":"SCALAR"
		},
		{
			"bufferView":4,
			"componentType":5126,
			"count":1600,
			"max":[
				156.6280059814453,
				138.76699829101562,
				-17.90530014038086
			],
			"min":[
				-165.593994140625,
				-131.1649932861328,
				-719.5070190429688
			],
			"type":"VEC3"
		},
		{
			"bufferView":5,
			"componentType":5126,
			"count":1600,
			"type":"VEC2"
		},
		{
			"bufferView":6,
			"componentType":5126,
			"count":1600,
			"type":"VEC3"
		},
		{
			"bufferView":7,
			"componentType":5123,
			"count":6300,
			"type":"SCALAR"
		}
	],
	"bufferViews":[
		{
			"buffer":0,
			"byteLength":22440,
			"byteOffset":0,
			"target":34962
		},
		{
			"buffer":0,
			"byteLength":14960,
			"byteOffset":22440,
			"target":34962
		},
		{
			"buffer":0,
			"byteLength":22440,
			"byteOffset":37400,
			"target":34962
		},
		{
			"buffer":0,
			"byteLength":17196,
			"byteOffset":59840,
			"target":34963
		},
		{
			"buffer":0,
			"byteLength":19200,
			"byteOffset":77036,
			"target":34962
		},
		{
			"buffer":0,
			"byteLength":12800,
			"byteOffset":96236,
			"target":34962
		},
		{
			"buffer":0,
			"byteLength":19200,
			"byteOffset":109036,
			"target":34962
		},
		{
			"buffer":0,
			"byteLength":12600,
			"byteOffset":128236,
			"target":34963
		}
	],
	"samplers":[
		{
			"magFilter":9729,
			"minFilter":9987
		}
	],
	"buffers":[
		{
			"byteLength":140836,
			"uri":"untitled.bin"
		}
	]
}
