{
  "accessors": [
    {
      "bufferView": 2,
      "componentType": 5126,
      "count": 2759,
      "max": [
        41.3074951171875,
        40.37548828125,
        87.85917663574219
      ],
      "min": [
        -35.245540618896484,
        -36.895416259765625,
        -0.9094290137290955
      ],
      "type": "VEC3"
    },
    {
      "bufferView": 2,
      "byteOffset": 33108,
      "componentType": 5126,
      "count": 2759,
      "max": [
        0.9999382495880127,
        0.9986748695373535,
        0.9985831379890442
      ],
      "min": [
        -0.9998949766159058,
        -0.9975876212120056,
        -0.411094069480896
      ],
      "type": "VEC3"
    },
    {
      "bufferView": 3,
      "componentType": 5126,
      "count": 2759,
      "max": [
        0.9987699389457703,
        0.9998998045921326,
        0.9577858448028564,
        1.0
      ],
      "min": [
        -0.9987726807594299,
        -0.9990445971488953,
        -0.999801516532898,
        1.0
      ],
      "type": "VEC4"
    },
    {
      "bufferView": 1,
      "componentType": 5126,
      "count": 2759,
      "max": [
        1.0061479806900024,
        0.9993550181388855
      ],
      "min": [
        0.00279300007969141,
        0.0011620000004768372
      ],
      "type": "VEC2"
    },
    {
      "bufferView": 0,
      "componentType": 5125,
      "count": 6378,
      "type": "SCALAR"
    }
  ],
  "asset": {
    "extras": {
      "author": "rufusrockwell (https://sketchfab.com/rufusrockwell)",
      "license": "CC-BY-4.0 (http://creativecommons.org/licenses/by/4.0/)",
      "source": "https://sketchfab.com/3d-models/lupine-plant-bf30f1110c174d4baedda0ed63778439",
      "title": "Lupine Plant"
    },
    "generator": "Sketchfab-12.68.0",
    "version": "2.0"
  },
  "bufferViews": [
    {
      "buffer": 0,
      "byteLength": 25512,
      "name": "floatBufferViews",
      "target": 34963
    },
    {
      "buffer": 0,
      "byteLength": 22072,
      "byteOffset": 25512,
      "byteStride": 8,
      "name": "floatBufferViews",
      "target": 34962
    },
    {
      "buffer": 0,
      "byteLength": 66216,
      "byteOffset": 47584,
      "byteStride": 12,
      "name": "floatBufferViews",
      "target": 34962
    },
    {
      "buffer": 0,
      "byteLength": 44144,
      "byteOffset": 113800,
      "byteStride": 16,
      "name": "floatBufferViews",
      "target": 34962
    }
  ],
  "buffers": [
    {
      "byteLength": 157944,
      "uri": "scene.bin"
    }
  ],
  "images": [
    {
      "uri": "textures/lambert2SG_baseColor.png"
    },
    {
      "uri": "textures/lambert2SG_normal.png"
    }
  ],
  "materials": [
    {
      "alphaCutoff": 0.2,
      "alphaMode": "MASK",
      "doubleSided": true,
      "name": "lambert2SG",
      "normalTexture": {
        "index": 1
      },
      "pbrMetallicRoughness": {
        "baseColorTexture": {
          "index": 0
        },
        "metallicFactor": 0.0
      }
    }
  ],
  "meshes": [
    {
      "name": "Object_0",
      "primitives": [
        {
          "attributes": {
            "NORMAL": 1,
            "POSITION": 0,
            "TANGENT": 2,
            "TEXCOORD_0": 3
          },
          "indices": 4,
          "material": 0,
          "mode": 4
        }
      ]
    }
  ],
  "nodes": [
    {
      "children": [
        1
      ],
      "matrix": [
        1.0,
        0.0,
        0.0,
        0.0,
        0.0,
        2.220446049250313e-16,
        -1.0,
        0.0,
        0.0,
        1.0,
        2.220446049250313e-16,
        0.0,
        0.0,
        0.0,
        0.0,
        1.0
      ],
      "name": "Sketchfab_model"
    },
    {
      "children": [
        2
      ],
      "name": "LupineSF.obj.cleaner.materialmerger.gles"
    },
    {
      "mesh": 0,
      "name": "Object_2"
    }
  ],
  "samplers": [
    {
      "magFilter": 9729,
      "minFilter": 9987,
      "wrapS": 10497,
      "wrapT": 10497
    }
  ],
  "scene": 0,
  "scenes": [
    {
      "name": "Sketchfab_Scene",
      "nodes": [
        0
      ]
    }
  ],
  "textures": [
    {
      "sampler": 0,
      "source": 0
    },
    {
      "sampler": 0,
      "source": 1
    }
  ]
}
