{
  "accessors": [
    {
      "bufferView": 2,
      "componentType": 5126,
      "count": 1148,
      "max": [
        0.9999997019767761,
        1.0,
        3.747150421142578
      ],
      "min": [
        -4.0764570236206055,
        -2.67039155960083,
        -0.9999987483024597
      ],
      "type": "VEC3"
    },
    {
      "bufferView": 2,
      "byteOffset": 13776,
      "componentType": 5126,
      "count": 1148,
      "max": [
        1.0,
        1.0,
        1.0
      ],
      "min": [
        -1.0,
        -1.0,
        -1.0
      ],
      "type": "VEC3"
    },
    {
      "bufferView": 1,
      "componentType": 5126,
      "count": 1148,
      "max": [
        1.0000001192092896,
        1.0063118934631348
      ],
      "min": [
        0.014582917094230652,
        -0.006311893463134766
      ],
      "type": "VEC2"
    },
    {
      "bufferView": 0,
      "componentType": 5125,
      "count": 5760,
      "type": "SCALAR"
    },
    {
      "bufferView": 2,
      "byteOffset": 27552,
      "componentType": 5126,
      "count": 574,
      "max": [
        -0.8796677589416504,
        0.37936997413635254,
        2.0311999320983887
      ],
      "min": [
        -2.879155158996582,
        -1.618711233139038,
        0.03333449363708496
      ],
      "type": "VEC3"
    },
    {
      "bufferView": 2,
      "byteOffset": 34440,
      "componentType": 5126,
      "count": 574,
      "max": [
        0.9997444748878479,
        0.9988141655921936,
        0.9990689158439636
      ],
      "min": [
        -0.9997445940971375,
        -0.9988141655921936,
        -0.9990689158439636
      ],
      "type": "VEC3"
    },
    {
      "bufferView": 1,
      "byteOffset": 9184,
      "componentType": 5126,
      "count": 574,
      "max": [
        1.0000001192092896,
        1.0063118934631348
      ],
      "min": [
        0.014582917094230652,
        -0.006311893463134766
      ],
      "type": "VEC2"
    },
    {
      "bufferView": 0,
      "byteOffset": 23040,
      "componentType": 5125,
      "count": 2880,
      "type": "SCALAR"
    },
    {
      "bufferView": 2,
      "byteOffset": 41328,
      "componentType": 5126,
      "count": 386,
      "max": [
        2.470491647720337,
        15.756646156311035,
        7.396427631378174
      ],
      "min": [
        0.47100257873535156,
        0.2268291711807251,
        -3.0934243202209473
      ],
      "type": "VEC3"
    },
    {
      "bufferView": 2,
      "byteOffset": 45960,
      "componentType": 5126,
      "count": 386,
      "max": [
        0.9997444748878479,
        0.9788205027580261,
        0.9781633019447327
      ],
      "min": [
        -0.9997445344924927,
        -0.5731490254402161,
        -0.9256771206855774
      ],
      "type": "VEC3"
    },
    {
      "bufferView": 1,
      "byteOffset": 13776,
      "componentType": 5126,
      "count": 386,
      "max": [
        1.0,
        1.0
      ],
      "min": [
        0.0,
        0.01000000536441803
      ],
      "type": "VEC2"
    },
    {
      "bufferView": 0,
      "byteOffset": 34560,
      "componentType": 5125,
      "count": 1908,
      "type": "SCALAR"
    }
  ],
  "asset": {
    "extras": {
      "author": "tim.time (https://sketchfab.com/timislav845455)",
      "license": "CC-BY-4.0 (http://creativecommons.org/licenses/by/4.0/)",
      "source": "https://sketchfab.com/3d-models/baseball-set-146ec8aebdca49fea7223c4319cc61e4",
      "title": "baseball set"
    },
    "generator": "Sketchfab-14.15.0",
    "version": "2.0"
  },
  "bufferViews": [
    {
      "buffer": 0,
      "byteLength": 42192,
      "name": "floatBufferViews",
      "target": 34963
    },
    {
      "buffer": 0,
      "byteLength": 16864,
      "byteOffset": 42192,
      "byteStride": 8,
      "name": "floatBufferViews",
      "target": 34962
    },
    {
      "buffer": 0,
      "byteLength": 50592,
      "byteOffset": 59056,
      "byteStride": 12,
      "name": "floatBufferViews",
      "target": 34962
    }
  ],
  "buffers": [
    {
      "byteLength": 109648,
      "uri": "scene.bin"
    }
  ],
  "images": [
    {
      "uri": "textures/Material.002_baseColor.png"
    }
  ],
  "materials": [
    {
      "doubleSided": true,
      "name": "Material.002",
      "pbrMetallicRoughness": {
        "baseColorTexture": {
          "index": 0
        },
        "metallicFactor": 0.0,
        "roughnessFactor": 0.5
      }
    },
    {
      "doubleSided": true,
      "name": "Material.001",
      "pbrMetallicRoughness": {
        "baseColorTexture": {
          "index": 0
        },
        "metallicFactor": 0.0,
        "roughnessFactor": 0.5
      }
    },
    {
      "doubleSided": true,
      "name": "Material.003",
      "pbrMetallicRoughness": {
        "baseColorFactor": [
          0.6673133010085732,
          0.5974446429792477,
          0.015238099740665062,
          1.0
        ],
        "metallicFactor": 0.0,
        "roughnessFactor": 0.5
      }
    }
  ],
  "meshes": [
    {
      "name": "Object_0",
      "primitives": [
        {
          "attributes": {
            "NORMAL": 1,
            "POSITION": 0,
            "TEXCOORD_0": 2
          },
          "indices": 3,
          "material": 0,
          "mode": 4
        }
      ]
    },
    {
      "name": "Object_1",
      "primitives": [
        {
          "attributes": {
            "NORMAL": 5,
            "POSITION": 4,
            "TEXCOORD_0": 6
          },
          "indices": 7,
          "material": 1,
          "mode": 4
        }
      ]
    },
    {
      "name": "Object_2",
      "primitives": [
        {
          "attributes": {
            "NORMAL": 9,
            "POSITION": 8,
            "TEXCOORD_0": 10
          },
          "indices": 11,
          "material": 2,
          "mode": 4
        }
      ]
    }
  ],
  "nodes": [
    {
      "children": [
        1
      ],
      "matrix": [
        1.0,
        0.0,
        0.0,
        0.0,
        0.0,
        2.220446049250313e-16,
        -1.0,
        0.0,
        0.0,
        1.0,
        2.220446049250313e-16,
        0.0,
        0.0,
        0.0,
        0.0,
        1.0
      ],
      "name": "Sketchfab_model"
    },
    {
      "children": [
        2
      ],
      "name": "root"
    },
    {
      "children": [
        3
      ],
      "matrix": [
        1.0,
        0.0,
        0.0,
        0.0,
        0.0,
        2.220446049250313e-16,
        1.0,
        0.0,
        0.0,
        -1.0,
        2.220446049250313e-16,
        0.0,
        0.0,
        0.0,
        0.0,
        1.0
      ],
      "name": "GLTF_SceneRootNode"
    },
    {
      "children": [
        4,
        5,
        6
      ],
      "matrix": [
        0.6909419462504807,
        2.388288650179149e-09,
        0.722910248171651,
        0.0,
        0.37598143133498385,
        0.8541089012186026,
        -0.3593549055605727,
        0.0,
        -0.6174440786037994,
        0.5200942076769854,
        0.5901396656198886,
        0.0,
        2.1689164638519287,
        -0.0076100826263427734,
        0.5267823934555054,
        1.0
      ],
      "name": "Sphere.001_2"
    },
    {
      "mesh": 0,
      "name": "Object_4"
    },
    {
      "mesh": 1,
      "name": "Object_5"
    },
    {
      "mesh": 2,
      "name": "Object_6"
    }
  ],
  "samplers": [
    {
      "magFilter": 9729,
      "minFilter": 9987,
      "wrapS": 10497,
      "wrapT": 10497
    }
  ],
  "scene": 0,
  "scenes": [
    {
      "name": "Sketchfab_Scene",
      "nodes": [
        0
      ]
    }
  ],
  "textures": [
    {
      "sampler": 0,
      "source": 0
    }
  ]
}
