{
	"asset":{
		"generator":"Khronos glTF Blender I/O v3.5.30",
		"version":"2.0"
	},
	"scene":0,
	"scenes":[
		{
			"name":"Scene",
			"nodes":[
				0
			]
		}
	],
	"nodes":[
		{
			"mesh":0,
			"name":"mesh.001",
			"scale":[
				0.12099999934434891,
				0.12099999934434891,
				0.12099999934434891
			]
		}
	],
	"materials":[
		{
			"doubleSided":true,
			"name":"Material #46",
			"pbrMetallicRoughness":{
				"baseColorFactor":[
					0.5879999995231628,
					0.5879999995231628,
					0.5879999995231628,
					1
				],
				"metallicFactor":0,
				"roughnessFactor":0.5
			}
		}
	],
	"meshes":[
		{
			"name":"Untitled.001",
			"primitives":[
				{
					"attributes":{
						"POSITION":0,
						"TEXCOORD_0":1,
						"NORMAL":2
					},
					"indices":3,
					"material":0
				}
			]
		}
	],
	"accessors":[
		{
			"bufferView":0,
			"componentType":5126,
			"count":1612,
			"max":[
				34.56096649169922,
				18.264511108398438,
				35.235713958740234
			],
			"min":[
				-22.350852966308594,
				-30.984203338623047,
				-64.75068664550781
			],
			"type":"VEC3"
		},
		{
			"bufferView":1,
			"componentType":5126,
			"count":1612,
			"type":"VEC2"
		},
		{
			"bufferView":2,
			"componentType":5126,
			"count":1612,
			"type":"VEC3"
		},
		{
			"bufferView":3,
			"componentType":5123,
			"count":2424,
			"type":"SCALAR"
		}
	],
	"bufferViews":[
		{
			"buffer":0,
			"byteLength":19344,
			"byteOffset":0,
			"target":34962
		},
		{
			"buffer":0,
			"byteLength":12896,
			"byteOffset":19344,
			"target":34962
		},
		{
			"buffer":0,
			"byteLength":19344,
			"byteOffset":32240,
			"target":34962
		},
		{
			"buffer":0,
			"byteLength":4848,
			"byteOffset":51584,
			"target":34963
		}
	],
	"buffers":[
		{
			"byteLength":56432,
			"uri":"MESHONLY.bin"
		}
	]
}
