{
  "accessors": [
    {
      "bufferView": 2,
      "componentType": 5126,
      "count": 922,
      "max": [
        3.936479091644287,
        3.9364707469940186,
        102.83522033691406
      ],
      "min": [
        -3.9364640712738037,
        -3.936471700668335,
        0.0
      ],
      "type": "VEC3"
    },
    {
      "bufferView": 2,
      "byteOffset": 11064,
      "componentType": 5126,
      "count": 922,
      "max": [
        0.9999995231628418,
        0.9999995231628418,
        0.9912862777709961
      ],
      "min": [
        -0.9999995231628418,
        -0.9999995231628418,
        -0.9965479373931885
      ],
      "type": "VEC3"
    },
    {
      "bufferView": 1,
      "componentType": 5126,
      "count": 922,
      "max": [
        0.998806357383728,
        0.37910589575767517
      ],
      "min": [
        -0.0010993778705596924,
        0.1571446657180786
      ],
      "type": "VEC2"
    },
    {
      "bufferView": 0,
      "componentType": 5125,
      "count": 5364,
      "type": "SCALAR"
    }
  ],
  "asset": {
    "extras": {
      "author": "matthewclarke (https://sketchfab.com/matthewclarke)",
      "license": "CC-BY-4.0 (http://creativecommons.org/licenses/by/4.0/)",
      "source": "https://sketchfab.com/3d-models/baseball-bat-d55af850f1664c548f71c9b7c1927460",
      "title": "Baseball Bat"
    },
    "generator": "Sketchfab-12.68.0",
    "version": "2.0"
  },
  "bufferViews": [
    {
      "buffer": 0,
      "byteLength": 21456,
      "name": "floatBufferViews",
      "target": 34963
    },
    {
      "buffer": 0,
      "byteLength": 7376,
      "byteOffset": 21456,
      "byteStride": 8,
      "name": "floatBufferViews",
      "target": 34962
    },
    {
      "buffer": 0,
      "byteLength": 22128,
      "byteOffset": 28832,
      "byteStride": 12,
      "name": "floatBufferViews",
      "target": 34962
    }
  ],
  "buffers": [
    {
      "byteLength": 50960,
      "uri": "scene.bin"
    }
  ],
  "images": [
    {
      "uri": "textures/Material.005_baseColor.png"
    }
  ],
  "materials": [
    {
      "doubleSided": true,
      "name": "Material.005",
      "pbrMetallicRoughness": {
        "baseColorTexture": {
          "index": 0
        },
        "metallicFactor": 0.0,
        "roughnessFactor": 0.8211145618000169
      }
    }
  ],
  "meshes": [
    {
      "name": "Circle_Material.005_0",
      "primitives": [
        {
          "attributes": {
            "NORMAL": 1,
            "POSITION": 0,
            "TEXCOORD_0": 2
          },
          "indices": 3,
          "material": 0,
          "mode": 4
        }
      ]
    }
  ],
  "nodes": [
    {
      "children": [
        1
      ],
      "matrix": [
        3.7039968967437744,
        0.0,
        0.0,
        0.0,
        0.0,
        8.224525275810134e-16,
        -3.7039968967437744,
        0.0,
        0.0,
        3.7039968967437744,
        8.224525275810134e-16,
        0.0,
        0.0,
        0.0,
        0.0,
        1.0
      ],
      "name": "Sketchfab_model"
    },
    {
      "children": [
        2
      ],
      "matrix": [
        1.0,
        0.0,
        0.0,
        0.0,
        0.0,
        0.0,
        1.0,
        0.0,
        0.0,
        -1.0,
        0.0,
        0.0,
        0.0,
        0.0,
        0.0,
        1.0
      ],
      "name": "baseball_bat_new.fbx"
    },
    {
      "children": [
        3,
        5,
        8
      ],
      "name": "RootNode"
    },
    {
      "children": [
        4
      ],
      "matrix": [
        7.88226623133118e-08,
        -1.0440378189086885,
        0.0,
        0.0,
        7.882266237126755e-08,
        5.795574125659294e-15,
        -1.0440378189086885,
        0.0,
        1.0440378189086856,
        7.882266237126755e-08,
        7.88226623133118e-08,
        0.0,
        0.31026601791381836,
        0.0,
        0.0,
        1.0
      ],
      "name": "Circle"
    },
    {
      "mesh": 0,
      "name": "Circle_Material.005_0"
    },
    {
      "children": [
        6
      ],
      "matrix": [
        95.9120199583241,
        -27.12685649845984,
        -8.063473811266011,
        0.0,
        16.12585881399663,
        75.80175025853195,
        -63.198507381537105,
        0.0,
        23.25602091284252,
        59.314656085485304,
        77.07742253579859,
        0.0,
        152.96678161621094,
        265.5260925292969,
        -171.14483642578125,
        1.0
      ],
      "name": "Area"
    },
    {
      "children": [
        7
      ],
      "matrix": [
        1.0,
        0.0,
        0.0,
        0.0,
        0.0,
        2.220446049250313e-16,
        1.0,
        0.0,
        0.0,
        -1.0,
        2.220446049250313e-16,
        0.0,
        0.0,
        0.0,
        0.0,
        1.0
      ],
      "name": "Object_6"
    },
    {
      "name": "Object_7"
    },
    {
      "children": [
        9
      ],
      "matrix": [
        -58.70743982666276,
        -32.309800123314034,
        -74.22609598375944,
        0.0,
        -20.04332356683084,
        94.63655116278704,
        -25.341435721136918,
        0.0,
        78.43278453168735,
        6.846185245656944e-05,
        -62.034654110434275,
        0.0,
        403.4438171386719,
        194.4483642578125,
        463.7796325683594,
        1.0
      ],
      "name": "Camera"
    },
    {
      "name": "Object_9"
    }
  ],
  "samplers": [
    {
      "magFilter": 9729,
      "minFilter": 9987,
      "wrapS": 10497,
      "wrapT": 10497
    }
  ],
  "scene": 0,
  "scenes": [
    {
      "name": "Sketchfab_Scene",
      "nodes": [
        0
      ]
    }
  ],
  "textures": [
    {
      "sampler": 0,
      "source": 0
    }
  ]
}
