{
  "accessors": [
    {
      "bufferView": 2,
      "componentType": 5126,
      "count": 3547,
      "max": [
        2.96151065826416,
        6.719433784484863,
        7.864234924316406
      ],
      "min": [
        -13.587387084960938,
        -1.8097193241119385,
        -5.368478775024414
      ],
      "type": "VEC3"
    },
    {
      "bufferView": 2,
      "byteOffset": 42564,
      "componentType": 5126,
      "count": 3547,
      "max": [
        1.0,
        1.0,
        1.0
      ],
      "min": [
        -1.0,
        -1.0,
        -1.0
      ],
      "type": "VEC3"
    },
    {
      "bufferView": 1,
      "componentType": 5126,
      "count": 3547,
      "max": [
        0.9995013475418091,
        0.999722957611084
      ],
      "min": [
        -0.051977530121803284,
        0.0
      ],
      "type": "VEC2"
    },
    {
      "bufferView": 0,
      "componentType": 5125,
      "count": 5343,
      "type": "SCALAR"
    },
    {
      "bufferView": 2,
      "byteOffset": 85128,
      "componentType": 5126,
      "count": 404,
      "max": [
        1.0,
        0.3857339024543762,
        7.958435535430908
      ],
      "min": [
        -15.689921379089355,
        -0.4221886396408081,
        -6.3103790283203125
      ],
      "type": "VEC3"
    },
    {
      "bufferView": 2,
      "byteOffset": 89976,
      "componentType": 5126,
      "count": 404,
      "max": [
        1.0,
        1.0,
        1.0
      ],
      "min": [
        -1.0,
        -1.0,
        -1.0
      ],
      "type": "VEC3"
    },
    {
      "bufferView": 1,
      "byteOffset": 28376,
      "componentType": 5126,
      "count": 404,
      "max": [
        1.308607578277588,
        1.3916599750518799
      ],
      "min": [
        -0.3086075186729431,
        -0.3916599154472351
      ],
      "type": "VEC2"
    },
    {
      "bufferView": 0,
      "byteOffset": 21372,
      "componentType": 5125,
      "count": 828,
      "type": "SCALAR"
    },
    {
      "bufferView": 2,
      "byteOffset": 94824,
      "componentType": 5126,
      "count": 61,
      "max": [
        1.0,
        0.07287722826004028,
        6.086023330688477
      ],
      "min": [
        -15.689921379089355,
        -0.3209289014339447,
        -5.67686653137207
      ],
      "type": "VEC3"
    },
    {
      "bufferView": 2,
      "byteOffset": 95556,
      "componentType": 5126,
      "count": 61,
      "max": [
        0.0,
        1.0,
        1.0
      ],
      "min": [
        -0.0790882334113121,
        0.0,
        -1.0
      ],
      "type": "VEC3"
    },
    {
      "bufferView": 1,
      "byteOffset": 31608,
      "componentType": 5126,
      "count": 61,
      "max": [
        0.7215492725372314,
        0.5295243859291077
      ],
      "min": [
        0.6278603672981262,
        0.13238774240016937
      ],
      "type": "VEC2"
    },
    {
      "bufferView": 0,
      "byteOffset": 24684,
      "componentType": 5125,
      "count": 108,
      "type": "SCALAR"
    }
  ],
  "asset": {
    "extras": {
      "author": "novusod (https://sketchfab.com/novusod)",
      "license": "CC-BY-4.0 (http://creativecommons.org/licenses/by/4.0/)",
      "source": "https://sketchfab.com/3d-models/surburban-starter-house-13a17971271d402886c164628afd50c7",
      "title": "Surburban Starter House"
    },
    "generator": "Sketchfab-13.40.0",
    "version": "2.0"
  },
  "bufferViews": [
    {
      "buffer": 0,
      "byteLength": 25116,
      "name": "floatBufferViews",
      "target": 34963
    },
    {
      "buffer": 0,
      "byteLength": 32096,
      "byteOffset": 25116,
      "byteStride": 8,
      "name": "floatBufferViews",
      "target": 34962
    },
    {
      "buffer": 0,
      "byteLength": 96288,
      "byteOffset": 57212,
      "byteStride": 12,
      "name": "floatBufferViews",
      "target": 34962
    }
  ],
  "buffers": [
    {
      "byteLength": 153500,
      "uri": "scene.bin"
    }
  ],
  "images": [
    {
      "uri": "textures/Material.001_baseColor.png"
    },
    {
      "uri": "textures/Material_baseColor.png"
    }
  ],
  "materials": [
    {
      "doubleSided": true,
      "name": "Material.001",
      "pbrMetallicRoughness": {
        "baseColorTexture": {
          "index": 0
        },
        "metallicFactor": 0.0,
        "roughnessFactor": 0.5
      }
    },
    {
      "doubleSided": true,
      "name": "Material",
      "pbrMetallicRoughness": {
        "baseColorTexture": {
          "index": 1
        },
        "metallicFactor": 0.0,
        "roughnessFactor": 0.5
      }
    }
  ],
  "meshes": [
    {
      "name": "Object_0",
      "primitives": [
        {
          "attributes": {
            "NORMAL": 1,
            "POSITION": 0,
            "TEXCOORD_0": 2
          },
          "indices": 3,
          "material": 0,
          "mode": 4
        }
      ]
    },
    {
      "name": "Object_1",
      "primitives": [
        {
          "attributes": {
            "NORMAL": 5,
            "POSITION": 4,
            "TEXCOORD_0": 6
          },
          "indices": 7,
          "material": 1,
          "mode": 4
        }
      ]
    },
    {
      "name": "Object_2",
      "primitives": [
        {
          "attributes": {
            "NORMAL": 9,
            "POSITION": 8,
            "TEXCOORD_0": 10
          },
          "indices": 11,
          "material": 0,
          "mode": 4
        }
      ]
    }
  ],
  "nodes": [
    {
      "children": [
        1
      ],
      "matrix": [
        1.0,
        0.0,
        0.0,
        0.0,
        0.0,
        2.220446049250313e-16,
        -1.0,
        0.0,
        0.0,
        1.0,
        2.220446049250313e-16,
        0.0,
        0.0,
        0.0,
        0.0,
        1.0
      ],
      "name": "Sketchfab_model"
    },
    {
      "children": [
        2
      ],
      "name": "root"
    },
    {
      "children": [
        3,
        5
      ],
      "matrix": [
        1.0,
        0.0,
        0.0,
        0.0,
        0.0,
        2.220446049250313e-16,
        1.0,
        0.0,
        0.0,
        -1.0,
        2.220446049250313e-16,
        0.0,
        0.0,
        0.0,
        0.0,
        1.0
      ],
      "name": "GLTF_SceneRootNode"
    },
    {
      "children": [
        4
      ],
      "matrix": [
        0.7836469411849976,
        0.0,
        0.0,
        0.0,
        0.0,
        0.7836469411849976,
        0.0,
        0.0,
        0.0,
        0.0,
        0.7836469411849976,
        0.0,
        -0.06020832061767578,
        -0.12608063220977783,
        0.011741816997528076,
        1.0
      ],
      "name": "Brick7_0"
    },
    {
      "mesh": 0,
      "name": "Object_4"
    },
    {
      "children": [
        6,
        7
      ],
      "matrix": [
        1.0,
        0.0,
        0.0,
        0.0,
        0.0,
        0.6351816654205322,
        0.0,
        0.0,
        0.0,
        0.0,
        1.0,
        0.0,
        2.790311813354492,
        0.0,
        0.0,
        1.0
      ],
      "name": "Grass_1"
    },
    {
      "mesh": 1,
      "name": "Object_6"
    },
    {
      "mesh": 2,
      "name": "Object_7"
    }
  ],
  "samplers": [
    {
      "magFilter": 9729,
      "minFilter": 9987,
      "wrapS": 10497,
      "wrapT": 10497
    }
  ],
  "scene": 0,
  "scenes": [
    {
      "name": "Sketchfab_Scene",
      "nodes": [
        0
      ]
    }
  ],
  "textures": [
    {
      "sampler": 0,
      "source": 0
    },
    {
      "sampler": 0,
      "source": 1
    }
  ]
}
