{
  "accessors": [
    {
      "bufferView": 2,
      "componentType": 5126,
      "count": 5504,
      "max": [
        155.27220153808594,
        271.014404296875,
        231.87069702148438
      ],
      "min": [
        -154.72779846191406,
        -205.360595703125,
        24.0
      ],
      "type": "VEC3"
    },
    {
      "bufferView": 2,
      "byteOffset": 66048,
      "componentType": 5126,
      "count": 5504,
      "max": [
        1.0,
        1.0,
        1.0
      ],
      "min": [
        -1.0,
        -1.0,
        -1.0
      ],
      "type": "VEC3"
    },
    {
      "bufferView": 1,
      "componentType": 5126,
      "count": 5504,
      "max": [
        3.437108039855957,
        2.4559319019317627
      ],
      "min": [
        -4.861776828765869,
        -6.9751200675964355
      ],
      "type": "VEC2"
    },
    {
      "bufferView": 0,
      "componentType": 5125,
      "count": 9408,
      "type": "SCALAR"
    },
    {
      "bufferView": 2,
      "byteOffset": 132096,
      "componentType": 5126,
      "count": 4,
      "max": [
        24.68629264831543,
        192.014404296875,
        24.0
      ],
      "min": [
        -24.14189338684082,
        191.014404296875,
        24.0
      ],
      "type": "VEC3"
    },
    {
      "bufferView": 2,
      "byteOffset": 132144,
      "componentType": 5126,
      "count": 4,
      "max": [
        0.0,
        0.0,
        1.0
      ],
      "min": [
        0.0,
        0.0,
        1.0
      ],
      "type": "VEC3"
    },
    {
      "bufferView": 0,
      "byteOffset": 37632,
      "componentType": 5125,
      "count": 6,
      "type": "SCALAR"
    },
    {
      "bufferView": 2,
      "byteOffset": 132192,
      "componentType": 5126,
      "count": 36,
      "max": [
        144.27220153808594,
        271.014404296875,
        20.0
      ],
      "min": [
        -143.72779846191406,
        -194.360595703125,
        0.0
      ],
      "type": "VEC3"
    },
    {
      "bufferView": 2,
      "byteOffset": 132624,
      "componentType": 5126,
      "count": 36,
      "max": [
        1.0,
        1.0,
        0.0
      ],
      "min": [
        -1.0,
        -1.0,
        0.0
      ],
      "type": "VEC3"
    },
    {
      "bufferView": 1,
      "byteOffset": 44032,
      "componentType": 5126,
      "count": 36,
      "max": [
        8.715461730957031,
        0.46703580021858215
      ],
      "min": [
        -8.715461730957031,
        0.0
      ],
      "type": "VEC2"
    },
    {
      "bufferView": 0,
      "byteOffset": 37656,
      "componentType": 5125,
      "count": 60,
      "type": "SCALAR"
    },
    {
      "bufferView": 2,
      "byteOffset": 133056,
      "componentType": 5126,
      "count": 208,
      "max": [
        155.27220153808594,
        191.014404296875,
        223.87069702148438
      ],
      "min": [
        -154.72779846191406,
        -194.360595703125,
        20.0
      ],
      "type": "VEC3"
    },
    {
      "bufferView": 2,
      "byteOffset": 135552,
      "componentType": 5126,
      "count": 208,
      "max": [
        1.0,
        1.0,
        0.0
      ],
      "min": [
        -1.0,
        -1.0,
        0.0
      ],
      "type": "VEC3"
    },
    {
      "bufferView": 3,
      "componentType": 5126,
      "count": 208,
      "max": [
        1.0,
        1.0,
        6.432025202229852e-06,
        1.0
      ],
      "min": [
        -1.0,
        -1.0,
        -6.431994279409992e-06,
        -1.0
      ],
      "type": "VEC4"
    },
    {
      "bufferView": 1,
      "byteOffset": 44320,
      "componentType": 5126,
      "count": 208,
      "max": [
        6.257728099822998,
        1.8641350269317627
      ],
      "min": [
        -6.15714693069458,
        -4.996004140208796e-16
      ],
      "type": "VEC2"
    },
    {
      "bufferView": 0,
      "byteOffset": 37896,
      "componentType": 5125,
      "count": 684,
      "type": "SCALAR"
    },
    {
      "bufferView": 2,
      "byteOffset": 138048,
      "componentType": 5126,
      "count": 4,
      "max": [
        24.68629264831543,
        192.014404296875,
        24.0
      ],
      "min": [
        -24.14189338684082,
        191.014404296875,
        24.0
      ],
      "type": "VEC3"
    },
    {
      "bufferView": 2,
      "byteOffset": 138096,
      "componentType": 5126,
      "count": 4,
      "max": [
        -0.0,
        -0.0,
        -1.0
      ],
      "min": [
        -0.0,
        -0.0,
        -1.0
      ],
      "type": "VEC3"
    },
    {
      "bufferView": 0,
      "byteOffset": 40632,
      "componentType": 5125,
      "count": 6,
      "type": "SCALAR"
    },
    {
      "bufferView": 2,
      "byteOffset": 138144,
      "componentType": 5126,
      "count": 96,
      "max": [
        144.27220153808594,
        293.014404296875,
        24.0
      ],
      "min": [
        -143.72779846191406,
        191.014404296875,
        0.0
      ],
      "type": "VEC3"
    },
    {
      "bufferView": 2,
      "byteOffset": 139296,
      "componentType": 5126,
      "count": 96,
      "max": [
        1.0,
        1.0,
        1.0
      ],
      "min": [
        -1.0,
        -1.0,
        -1.0
      ],
      "type": "VEC3"
    },
    {
      "bufferView": 1,
      "byteOffset": 45984,
      "componentType": 5126,
      "count": 96,
      "max": [
        3.0073089599609375,
        0.521369993686676
      ],
      "min": [
        -1.429293056666461e-16,
        -0.3234815001487732
      ],
      "type": "VEC2"
    },
    {
      "bufferView": 0,
      "byteOffset": 40656,
      "componentType": 5125,
      "count": 168,
      "type": "SCALAR"
    },
    {
      "bufferView": 2,
      "byteOffset": 140448,
      "componentType": 5126,
      "count": 88,
      "max": [
        155.27220153808594,
        271.014404296875,
        231.87069702148438
      ],
      "min": [
        -154.72779846191406,
        -205.360595703125,
        123.625
      ],
      "type": "VEC3"
    },
    {
      "bufferView": 2,
      "byteOffset": 141504,
      "componentType": 5126,
      "count": 88,
      "max": [
        0.509880006313324,
        0.509880006313324,
        0.966218113899231
      ],
      "min": [
        -0.509880006313324,
        -0.509880006313324,
        -0.966218113899231
      ],
      "type": "VEC3"
    },
    {
      "bufferView": 1,
      "byteOffset": 46752,
      "componentType": 5126,
      "count": 88,
      "max": [
        7.39208984375,
        4.350221157073975
      ],
      "min": [
        -8.881784197001252e-16,
        -2.664535047342139e-15
      ],
      "type": "VEC2"
    },
    {
      "bufferView": 0,
      "byteOffset": 41328,
      "componentType": 5125,
      "count": 168,
      "type": "SCALAR"
    },
    {
      "bufferView": 2,
      "byteOffset": 142560,
      "componentType": 5126,
      "count": 2,
      "max": [
        84.27220916748047,
        271.014404296875,
        0.0
      ],
      "min": [
        -83.72779083251953,
        271.014404296875,
        0.0
      ],
      "type": "VEC3"
    },
    {
      "bufferView": 0,
      "byteOffset": 42000,
      "componentType": 5125,
      "count": 2,
      "type": "SCALAR"
    },
    {
      "bufferView": 2,
      "byteOffset": 142584,
      "componentType": 5126,
      "count": 236,
      "max": [
        143.52220153808594,
        190.326904296875,
        195.47210693359375
      ],
      "min": [
        -142.97779846191406,
        -193.610595703125,
        39.17057800292969
      ],
      "type": "VEC3"
    },
    {
      "bufferView": 2,
      "byteOffset": 145416,
      "componentType": 5126,
      "count": 236,
      "max": [
        1.0,
        1.0,
        0.0
      ],
      "min": [
        -1.0,
        -1.0,
        0.0
      ],
      "type": "VEC3"
    },
    {
      "bufferView": 0,
      "byteOffset": 42008,
      "componentType": 5125,
      "count": 360,
      "type": "SCALAR"
    },
    {
      "bufferView": 2,
      "byteOffset": 148248,
      "componentType": 5126,
      "count": 12,
      "max": [
        16.390750885009766,
        190.326904296875,
        105.12625122070313
      ],
      "min": [
        -15.846323013305664,
        190.326904296875,
        39.17057800292969
      ],
      "type": "VEC3"
    },
    {
      "bufferView": 2,
      "byteOffset": 148392,
      "componentType": 5126,
      "count": 12,
      "max": [
        -0.0,
        -1.0,
        -0.0
      ],
      "min": [
        -0.0,
        -1.0,
        -0.0
      ],
      "type": "VEC3"
    },
    {
      "bufferView": 0,
      "byteOffset": 43448,
      "componentType": 5125,
      "count": 24,
      "type": "SCALAR"
    }
  ],
  "asset": {
    "extras": {
      "author": "jimbogies (https://sketchfab.com/jimbogies)",
      "license": "CC-BY-4.0 (http://creativecommons.org/licenses/by/4.0/)",
      "source": "https://sketchfab.com/3d-models/small-house-1ac9bb385eda47678ab47d491a63af31",
      "title": "Small House"
    },
    "generator": "Sketchfab-12.66.0",
    "version": "2.0"
  },
  "bufferViews": [
    {
      "buffer": 0,
      "byteLength": 43544,
      "name": "floatBufferViews",
      "target": 34963
    },
    {
      "buffer": 0,
      "byteLength": 47456,
      "byteOffset": 43544,
      "byteStride": 8,
      "name": "floatBufferViews",
      "target": 34962
    },
    {
      "buffer": 0,
      "byteLength": 148536,
      "byteOffset": 91000,
      "byteStride": 12,
      "name": "floatBufferViews",
      "target": 34962
    },
    {
      "buffer": 0,
      "byteLength": 3328,
      "byteOffset": 239536,
      "byteStride": 16,
      "name": "floatBufferViews",
      "target": 34962
    }
  ],
  "buffers": [
    {
      "byteLength": 242864,
      "uri": "scene.bin"
    }
  ],
  "images": [
    {
      "uri": "textures/Wood01_baseColor.jpeg"
    },
    {
      "uri": "textures/block01_baseColor.jpeg"
    },
    {
      "uri": "textures/Siding03_baseColor.jpeg"
    },
    {
      "uri": "textures/Siding03_metallicRoughness.png"
    },
    {
      "uri": "textures/Siding03_normal.png"
    },
    {
      "uri": "textures/Concrete05_baseColor.jpeg"
    },
    {
      "uri": "textures/Roof01_baseColor.jpeg"
    }
  ],
  "materials": [
    {
      "name": "Wood01",
      "pbrMetallicRoughness": {
        "baseColorTexture": {
          "index": 0
        },
        "metallicFactor": 0.0,
        "roughnessFactor": 0.7921325599
      }
    },
    {
      "name": "material",
      "pbrMetallicRoughness": {
        "metallicFactor": 0.0,
        "roughnessFactor": 0.6
      }
    },
    {
      "name": "block01",
      "pbrMetallicRoughness": {
        "baseColorTexture": {
          "index": 1
        },
        "metallicFactor": 0.0,
        "roughnessFactor": 0.6
      }
    },
    {
      "name": "Siding03",
      "normalTexture": {
        "index": 4
      },
      "pbrMetallicRoughness": {
        "baseColorTexture": {
          "index": 2
        },
        "metallicFactor": 0.0,
        "metallicRoughnessTexture": {
          "index": 3
        }
      }
    },
    {
      "name": "material_0",
      "pbrMetallicRoughness": {
        "baseColorFactor": [
          0.643137,
          0.698039,
          0.733333,
          1.0
        ],
        "metallicFactor": 0.0,
        "roughnessFactor": 0.6
      }
    },
    {
      "name": "Concrete05",
      "pbrMetallicRoughness": {
        "baseColorTexture": {
          "index": 5
        },
        "metallicFactor": 0.0,
        "roughnessFactor": 0.6
      }
    },
    {
      "name": "Roof01",
      "pbrMetallicRoughness": {
        "baseColorTexture": {
          "index": 6
        },
        "metallicFactor": 0.0
      }
    },
    {
      "name": "edge_color000255",
      "pbrMetallicRoughness": {
        "metallicFactor": 0.0,
        "roughnessFactor": 0.6
      }
    },
    {
      "alphaMode": "BLEND",
      "name": "Translucent_Glass_Gray",
      "pbrMetallicRoughness": {
        "baseColorFactor": [
          0.9406652058,
          0.9406652058,
          0.9406652058,
          0.8833351574
        ],
        "metallicFactor": 0.9684575817,
        "roughnessFactor": 0.3057187069
      }
    },
    {
      "name": "Color_B01",
      "pbrMetallicRoughness": {
        "baseColorFactor": [
          1.0,
          0.847059,
          0.8,
          1.0
        ],
        "metallicFactor": 0.0,
        "roughnessFactor": 0.6
      }
    }
  ],
  "meshes": [
    {
      "name": "Material2",
      "primitives": [
        {
          "attributes": {
            "NORMAL": 1,
            "POSITION": 0,
            "TEXCOORD_0": 2
          },
          "indices": 3,
          "material": 0,
          "mode": 4
        }
      ]
    },
    {
      "name": "Material2",
      "primitives": [
        {
          "attributes": {
            "NORMAL": 5,
            "POSITION": 4
          },
          "indices": 6,
          "material": 1,
          "mode": 4
        }
      ]
    },
    {
      "name": "Material2",
      "primitives": [
        {
          "attributes": {
            "NORMAL": 8,
            "POSITION": 7,
            "TEXCOORD_0": 9
          },
          "indices": 10,
          "material": 2,
          "mode": 4
        }
      ]
    },
    {
      "name": "Material2",
      "primitives": [
        {
          "attributes": {
            "NORMAL": 12,
            "POSITION": 11,
            "TANGENT": 13,
            "TEXCOORD_0": 14
          },
          "indices": 15,
          "material": 3,
          "mode": 4
        }
      ]
    },
    {
      "name": "Material3",
      "primitives": [
        {
          "attributes": {
            "NORMAL": 17,
            "POSITION": 16
          },
          "indices": 18,
          "material": 4,
          "mode": 4
        }
      ]
    },
    {
      "name": "Material2",
      "primitives": [
        {
          "attributes": {
            "NORMAL": 20,
            "POSITION": 19,
            "TEXCOORD_0": 21
          },
          "indices": 22,
          "material": 5,
          "mode": 4
        }
      ]
    },
    {
      "name": "Material2",
      "primitives": [
        {
          "attributes": {
            "NORMAL": 24,
            "POSITION": 23,
            "TEXCOORD_0": 25
          },
          "indices": 26,
          "material": 6,
          "mode": 4
        }
      ]
    },
    {
      "name": "Material2",
      "primitives": [
        {
          "attributes": {
            "POSITION": 27
          },
          "indices": 28,
          "material": 7,
          "mode": 1
        }
      ]
    },
    {
      "name": "Material2",
      "primitives": [
        {
          "attributes": {
            "NORMAL": 30,
            "POSITION": 29
          },
          "indices": 31,
          "material": 8,
          "mode": 4
        }
      ]
    },
    {
      "name": "Material3",
      "primitives": [
        {
          "attributes": {
            "NORMAL": 33,
            "POSITION": 32
          },
          "indices": 34,
          "material": 9,
          "mode": 4
        }
      ]
    }
  ],
  "nodes": [
    {
      "children": [
        1
      ],
      "matrix": [
        1.0,
        0.0,
        0.0,
        0.0,
        0.0,
        2.220446049250313e-16,
        -1.0,
        0.0,
        0.0,
        1.0,
        2.220446049250313e-16,
        0.0,
        0.0,
        0.0,
        0.0,
        1.0
      ],
      "name": "Sketchfab_model"
    },
    {
      "children": [
        2,
        3,
        4,
        5,
        6,
        7,
        8,
        9,
        10,
        11,
        12
      ],
      "name": "Collada visual scene group"
    },
    {
      "mesh": 0,
      "name": "Material2"
    },
    {
      "mesh": 1,
      "name": "Material2"
    },
    {
      "mesh": 2,
      "name": "Material2"
    },
    {
      "mesh": 3,
      "name": "Material2"
    },
    {
      "mesh": 4,
      "name": "Material3"
    },
    {
      "mesh": 5,
      "name": "Material2"
    },
    {
      "mesh": 6,
      "name": "Material2"
    },
    {
      "mesh": 7,
      "name": "Material2"
    },
    {
      "mesh": 8,
      "name": "Material2"
    },
    {
      "mesh": 9,
      "name": "Material3"
    },
    {
      "children": [
        13
      ],
      "name": "SketchUp"
    },
    {
      "children": [
        14
      ],
      "matrix": [
        -0.8277384,
        0.5611142,
        -3.469447e-18,
        0.0,
        -0.03454295,
        -0.0509567,
        0.9981033,
        0.0,
        0.56005,
        0.8261684,
        0.06156136,
        0.0,
        350.3453,
        541.4236,
        97.58316,
        1.0
      ],
      "name": "skp_camera_Last_Saved_SketchUp_View"
    },
    {
      "name": "ID1"
    }
  ],
  "samplers": [
    {
      "magFilter": 9729,
      "minFilter": 9987,
      "wrapS": 10497,
      "wrapT": 10497
    }
  ],
  "scene": 0,
  "scenes": [
    {
      "name": "Sketchfab_Scene",
      "nodes": [
        0
      ]
    }
  ],
  "textures": [
    {
      "sampler": 0,
      "source": 0
    },
    {
      "sampler": 0,
      "source": 1
    },
    {
      "sampler": 0,
      "source": 2
    },
    {
      "sampler": 0,
      "source": 3
    },
    {
      "sampler": 0,
      "source": 4
    },
    {
      "sampler": 0,
      "source": 5
    },
    {
      "sampler": 0,
      "source": 6
    }
  ]
}
