{
	"asset":{
		"generator":"Khronos glTF Blender I/O v3.5.30",
		"version":"2.0"
	},
	"extensionsUsed":[
		"KHR_materials_specular",
		"KHR_materials_ior"
	],
	"scene":0,
	"scenes":[
		{
			"name":"Scene",
			"nodes":[
				0
			]
		}
	],
	"nodes":[
		{
			"mesh":0,
			"name":"Wiffle_Ball_convert",
			"rotation":[
				0.7071068286895752,
				0,
				0,
				0.7071068286895752
			]
		}
	],
	"materials":[
		{
			"doubleSided":true,
			"extensions":{
				"KHR_materials_specular":{
					"specularColorFactor":[
						2.371357614441398,
						2.371357614441398,
						2.371357614441398
					]
				},
				"KHR_materials_ior":{
					"ior":1.4500000476837158
				}
			},
			"name":"wiffle_ball_2",
			"normalTexture":{
				"index":0,
				"scale":0
			},
			"pbrMetallicRoughness":{
				"baseColorTexture":{
					"index":1
				},
				"metallicFactor":0,
				"roughnessFactor":0.7470177412033081
			}
		}
	],
	"meshes":[
		{
			"name":"Wiffle_Ball_convert",
			"primitives":[
				{
					"attributes":{
						"POSITION":0,
						"TEXCOORD_0":1,
						"NORMAL":2
					},
					"indices":3,
					"material":0
				}
			]
		}
	],
	"textures":[
		{
			"sampler":0,
			"source":0
		},
		{
			"sampler":0,
			"source":1
		}
	],
	"images":[
		{
			"mimeType":"image/png",
			"name":"wiffle_ball_2_normal",
			"uri":"wiffle_ball_2_normal.png"
		},
		{
			"mimeType":"image/png",
			"name":"wiffle_ball_2_diffuse",
			"uri":"wiffle_ball_2_diffuse.png"
		}
	],
	"accessors":[
		{
			"bufferView":0,
			"componentType":5126,
			"count":9576,
			"max":[
				2.0052099227905273,
				4.010019779205322,
				2.0052099227905273
			],
			"min":[
				-2.0052099227905273,
				0,
				-2.0052099227905273
			],
			"type":"VEC3"
		},
		{
			"bufferView":1,
			"componentType":5126,
			"count":9576,
			"type":"VEC2"
		},
		{
			"bufferView":2,
			"componentType":5126,
			"count":9576,
			"type":"VEC3"
		},
		{
			"bufferView":3,
			"componentType":5123,
			"count":37632,
			"type":"SCALAR"
		}
	],
	"bufferViews":[
		{
			"buffer":0,
			"byteLength":114912,
			"byteOffset":0,
			"target":34962
		},
		{
			"buffer":0,
			"byteLength":76608,
			"byteOffset":114912,
			"target":34962
		},
		{
			"buffer":0,
			"byteLength":114912,
			"byteOffset":191520,
			"target":34962
		},
		{
			"buffer":0,
			"byteLength":75264,
			"byteOffset":306432,
			"target":34963
		}
	],
	"samplers":[
		{
			"magFilter":9729,
			"minFilter":9987
		}
	],
	"buffers":[
		{
			"byteLength":381696,
			"uri":"untitled.bin"
		}
	]
}
