{
  "accessors": [
    {
      "bufferView": 2,
      "componentType": 5126,
      "count": 686,
      "max": [
        1.0238020420074463,
        1.020391821861267,
        1.0238213539123535
      ],
      "min": [
        -1.0238021612167358,
        -1.020391821861267,
        -1.023821473121643
      ],
      "type": "VEC3"
    },
    {
      "bufferView": 2,
      "byteOffset": 8232,
      "componentType": 5126,
      "count": 686,
      "max": [
        1.0,
        1.0,
        1.0
      ],
      "min": [
        -1.0,
        -1.0,
        -1.0
      ],
      "type": "VEC3"
    },
    {
      "bufferView": 1,
      "componentType": 5126,
      "count": 686,
      "max": [
        0.9666651487350464,
        0.9680587649345398
      ],
      "min": [
        0.04817330837249756,
        0.024341851472854614
      ],
      "type": "VEC2"
    },
    {
      "bufferView": 0,
      "componentType": 5125,
      "count": 2664,
      "type": "SCALAR"
    },
    {
      "bufferView": 2,
      "byteOffset": 16464,
      "componentType": 5126,
      "count": 1020,
      "max": [
        1.0321102142333984,
        1.0429832935333252,
        1.0217924118041992
      ],
      "min": [
        -1.032110333442688,
        -1.0429844856262207,
        -1.0217924118041992
      ],
      "type": "VEC3"
    },
    {
      "bufferView": 2,
      "byteOffset": 28704,
      "componentType": 5126,
      "count": 1020,
      "max": [
        1.0,
        0.9999712109565735,
        0.9998231530189514
      ],
      "min": [
        -1.0,
        -0.9999712109565735,
        -0.9998230934143066
      ],
      "type": "VEC3"
    },
    {
      "bufferView": 1,
      "byteOffset": 5488,
      "componentType": 5126,
      "count": 1020,
      "max": [
        0.9719985723495483,
        0.9586790800094604
      ],
      "min": [
        0.0399664081633091,
        0.03837825357913971
      ],
      "type": "VEC2"
    },
    {
      "bufferView": 0,
      "byteOffset": 10656,
      "componentType": 5125,
      "count": 2520,
      "type": "SCALAR"
    },
    {
      "bufferView": 2,
      "byteOffset": 40944,
      "componentType": 5126,
      "count": 1554,
      "max": [
        1.0256603956222534,
        1.0256680250167847,
        1.0256640911102295
      ],
      "min": [
        -1.0256679058074951,
        -1.0256603956222534,
        -1.0256640911102295
      ],
      "type": "VEC3"
    },
    {
      "bufferView": 2,
      "byteOffset": 59592,
      "componentType": 5126,
      "count": 1554,
      "max": [
        1.0,
        1.0,
        1.0
      ],
      "min": [
        -1.0,
        -1.0,
        -1.0
      ],
      "type": "VEC3"
    },
    {
      "bufferView": 1,
      "byteOffset": 13648,
      "componentType": 5126,
      "count": 1554,
      "max": [
        0.9734714031219482,
        0.9678584933280945
      ],
      "min": [
        0.036573708057403564,
        0.03495246171951294
      ],
      "type": "VEC2"
    },
    {
      "bufferView": 0,
      "byteOffset": 20736,
      "componentType": 5125,
      "count": 3984,
      "type": "SCALAR"
    },
    {
      "bufferView": 2,
      "byteOffset": 78240,
      "componentType": 5126,
      "count": 632,
      "max": [
        1.022127628326416,
        0.6410673260688782,
        0.6620000004768372
      ],
      "min": [
        -1.02212655544281,
        -0.6410675644874573,
        -0.6410675644874573
      ],
      "type": "VEC3"
    },
    {
      "bufferView": 2,
      "byteOffset": 85824,
      "componentType": 5126,
      "count": 632,
      "max": [
        0.9695359468460083,
        0.9656052589416504,
        0.9982640743255615
      ],
      "min": [
        -0.9695359468460083,
        -0.9656050801277161,
        -0.9656050801277161
      ],
      "type": "VEC3"
    },
    {
      "bufferView": 1,
      "byteOffset": 26080,
      "componentType": 5126,
      "count": 632,
      "max": [
        0.977671205997467,
        0.970683753490448
      ],
      "min": [
        0.03379197418689728,
        0.024137958884239197
      ],
      "type": "VEC2"
    },
    {
      "bufferView": 0,
      "byteOffset": 36672,
      "componentType": 5125,
      "count": 2052,
      "type": "SCALAR"
    },
    {
      "bufferView": 2,
      "byteOffset": 93408,
      "componentType": 5126,
      "count": 2324,
      "max": [
        1.0117723941802979,
        1.0117119550704956,
        1.0116686820983887
      ],
      "min": [
        -1.0115652084350586,
        -1.0116252899169922,
        -1.0116686820983887
      ],
      "type": "VEC3"
    },
    {
      "bufferView": 2,
      "byteOffset": 121296,
      "componentType": 5126,
      "count": 2324,
      "max": [
        1.0,
        1.0,
        1.0
      ],
      "min": [
        -1.0,
        -1.0,
        -1.0
      ],
      "type": "VEC3"
    },
    {
      "bufferView": 1,
      "byteOffset": 31136,
      "componentType": 5126,
      "count": 2324,
      "max": [
        0.9477047324180603,
        0.9721767902374268
      ],
      "min": [
        0.0430811308324337,
        0.02611486427485943
      ],
      "type": "VEC2"
    },
    {
      "bufferView": 0,
      "byteOffset": 44880,
      "componentType": 5125,
      "count": 5760,
      "type": "SCALAR"
    },
    {
      "bufferView": 2,
      "byteOffset": 149184,
      "componentType": 5126,
      "count": 232,
      "max": [
        0.09999996423721313,
        0.10000002384185791,
        1.0
      ],
      "min": [
        -0.10000002384185791,
        -0.10000002384185791,
        -1.0
      ],
      "type": "VEC3"
    },
    {
      "bufferView": 2,
      "byteOffset": 151968,
      "componentType": 5126,
      "count": 232,
      "max": [
        1.0,
        1.0,
        0.9321825504302979
      ],
      "min": [
        -1.0,
        -1.0,
        -0.921427845954895
      ],
      "type": "VEC3"
    },
    {
      "bufferView": 1,
      "byteOffset": 49728,
      "componentType": 5126,
      "count": 232,
      "max": [
        0.7175575494766235,
        0.9646180868148804
      ],
      "min": [
        0.03538192808628082,
        0.03538191318511963
      ],
      "type": "VEC2"
    },
    {
      "bufferView": 0,
      "byteOffset": 67920,
      "componentType": 5125,
      "count": 852,
      "type": "SCALAR"
    },
    {
      "bufferView": 2,
      "byteOffset": 154752,
      "componentType": 5126,
      "count": 610,
      "max": [
        1.0077784061431885,
        1.007778525352478,
        1.0077784061431885
      ],
      "min": [
        -1.0077784061431885,
        -1.0077784061431885,
        -1.0077784061431885
      ],
      "type": "VEC3"
    },
    {
      "bufferView": 2,
      "byteOffset": 162072,
      "componentType": 5126,
      "count": 610,
      "max": [
        1.0,
        1.0,
        1.0
      ],
      "min": [
        -1.0,
        -1.0,
        -1.0
      ],
      "type": "VEC3"
    },
    {
      "bufferView": 1,
      "byteOffset": 51584,
      "componentType": 5126,
      "count": 610,
      "max": [
        0.9485802054405212,
        0.9472579956054688
      ],
      "min": [
        0.02782212197780609,
        0.0313955582678318
      ],
      "type": "VEC2"
    },
    {
      "bufferView": 0,
      "byteOffset": 71328,
      "componentType": 5125,
      "count": 2160,
      "type": "SCALAR"
    },
    {
      "bufferView": 2,
      "byteOffset": 169392,
      "componentType": 5126,
      "count": 816,
      "max": [
        0.3825000524520874,
        0.07904002815485,
        1.0099999904632568
      ],
      "min": [
        -0.3825000524520874,
        -0.07904002815485,
        -1.0
      ],
      "type": "VEC3"
    },
    {
      "bufferView": 2,
      "byteOffset": 179184,
      "componentType": 5126,
      "count": 816,
      "max": [
        1.0,
        1.0,
        1.0
      ],
      "min": [
        -1.0,
        -1.0,
        -1.0
      ],
      "type": "VEC3"
    },
    {
      "bufferView": 1,
      "byteOffset": 56464,
      "componentType": 5126,
      "count": 816,
      "max": [
        0.9633470773696899,
        0.981269121170044
      ],
      "min": [
        0.021747320890426636,
        0.021179288625717163
      ],
      "type": "VEC2"
    },
    {
      "bufferView": 0,
      "byteOffset": 79968,
      "componentType": 5125,
      "count": 2091,
      "type": "SCALAR"
    },
    {
      "bufferView": 2,
      "byteOffset": 188976,
      "componentType": 5126,
      "count": 721,
      "max": [
        0.9999342560768127,
        0.9999343752861023,
        1.0143063068389893
      ],
      "min": [
        -0.9999342560768127,
        -1.0077178478240967,
        -0.9999343752861023
      ],
      "type": "VEC3"
    },
    {
      "bufferView": 2,
      "byteOffset": 197628,
      "componentType": 5126,
      "count": 721,
      "max": [
        0.9821794629096985,
        0.9821794629096985,
        0.9999020099639893
      ],
      "min": [
        -0.9821794629096985,
        -0.9808523058891296,
        -0.9821794629096985
      ],
      "type": "VEC3"
    },
    {
      "bufferView": 1,
      "byteOffset": 62992,
      "componentType": 5126,
      "count": 721,
      "max": [
        0.8756551146507263,
        0.9757026433944702
      ],
      "min": [
        0.03719407320022583,
        0.027805447578430176
      ],
      "type": "VEC2"
    },
    {
      "bufferView": 0,
      "byteOffset": 88332,
      "componentType": 5125,
      "count": 2796,
      "type": "SCALAR"
    }
  ],
  "asset": {
    "extras": {
      "author": "Alberto Luviano (https://sketchfab.com/AlbertoLuviano)",
      "license": "CC-BY-4.0 (http://creativecommons.org/licenses/by/4.0/)",
      "source": "https://sketchfab.com/3d-models/sports-balls-lowpoly-pack-cceeb4417e8042e3817c87edd6af007e",
      "title": "Sports balls: Lowpoly pack"
    },
    "generator": "Sketchfab-12.68.0",
    "version": "2.0"
  },
  "bufferViews": [
    {
      "buffer": 0,
      "byteLength": 99516,
      "name": "floatBufferViews",
      "target": 34963
    },
    {
      "buffer": 0,
      "byteLength": 68760,
      "byteOffset": 99516,
      "byteStride": 8,
      "name": "floatBufferViews",
      "target": 34962
    },
    {
      "buffer": 0,
      "byteLength": 206280,
      "byteOffset": 168276,
      "byteStride": 12,
      "name": "floatBufferViews",
      "target": 34962
    }
  ],
  "buffers": [
    {
      "byteLength": 374556,
      "uri": "scene.bin"
    }
  ],
  "images": [
    {
      "uri": "textures/BasketV1Mat_baseColor.png"
    },
    {
      "uri": "textures/SoccerV1Mat_baseColor.png"
    },
    {
      "uri": "textures/VolleyballV1Mat_baseColor.png"
    },
    {
      "uri": "textures/AFootballV1Mat_baseColor.png"
    },
    {
      "uri": "textures/BaseballV1Mat_baseColor.png"
    },
    {
      "uri": "textures/BaseballBatV1Mat_baseColor.png"
    },
    {
      "uri": "textures/TennisV1Mat_baseColor.png"
    },
    {
      "uri": "textures/TennisRacketV1Mat_baseColor.png"
    },
    {
      "uri": "textures/BowlingV1Mat_baseColor.png"
    }
  ],
  "materials": [
    {
      "name": "BasketV1Mat",
      "pbrMetallicRoughness": {
        "baseColorTexture": {
          "index": 0
        },
        "metallicFactor": 0.0,
        "roughnessFactor": 0.5
      }
    },
    {
      "name": "SoccerV1Mat",
      "pbrMetallicRoughness": {
        "baseColorTexture": {
          "index": 1
        },
        "metallicFactor": 0.0,
        "roughnessFactor": 0.45
      }
    },
    {
      "name": "VolleyballV1Mat",
      "pbrMetallicRoughness": {
        "baseColorTexture": {
          "index": 2
        },
        "metallicFactor": 0.0,
        "roughnessFactor": 0.5
      }
    },
    {
      "name": "AFootballV1Mat",
      "pbrMetallicRoughness": {
        "baseColorTexture": {
          "index": 3
        },
        "metallicFactor": 0.0,
        "roughnessFactor": 0.6
      }
    },
    {
      "name": "BaseballV1Mat",
      "pbrMetallicRoughness": {
        "baseColorTexture": {
          "index": 4
        },
        "metallicFactor": 0.0,
        "roughnessFactor": 0.45
      }
    },
    {
      "name": "BaseballBatV1Mat",
      "pbrMetallicRoughness": {
        "baseColorTexture": {
          "index": 5
        },
        "metallicFactor": 0.0,
        "roughnessFactor": 0.45
      }
    },
    {
      "name": "TennisV1Mat",
      "pbrMetallicRoughness": {
        "baseColorTexture": {
          "index": 6
        },
        "metallicFactor": 0.0,
        "roughnessFactor": 0.8
      }
    },
    {
      "alphaMode": "BLEND",
      "name": "TennisRacketV1Mat",
      "pbrMetallicRoughness": {
        "baseColorTexture": {
          "index": 7
        },
        "metallicFactor": 0.5,
        "roughnessFactor": 0.5
      }
    },
    {
      "name": "BowlingV1Mat",
      "pbrMetallicRoughness": {
        "baseColorTexture": {
          "index": 8
        },
        "metallicFactor": 0.0,
        "roughnessFactor": 0.6
      }
    }
  ],
  "meshes": [
    {
      "name": "BasketV1_BasketV1Mat_0",
      "primitives": [
        {
          "attributes": {
            "NORMAL": 1,
            "POSITION": 0,
            "TEXCOORD_0": 2
          },
          "indices": 3,
          "material": 0,
          "mode": 4
        }
      ]
    },
    {
      "name": "SoccerV1_SoccerV1Mat_0",
      "primitives": [
        {
          "attributes": {
            "NORMAL": 5,
            "POSITION": 4,
            "TEXCOORD_0": 6
          },
          "indices": 7,
          "material": 1,
          "mode": 4
        }
      ]
    },
    {
      "name": "VolleyballV1_VolleyballV1Mat_0",
      "primitives": [
        {
          "attributes": {
            "NORMAL": 9,
            "POSITION": 8,
            "TEXCOORD_0": 10
          },
          "indices": 11,
          "material": 2,
          "mode": 4
        }
      ]
    },
    {
      "name": "AFootballV1_AFootballV1Mat_0",
      "primitives": [
        {
          "attributes": {
            "NORMAL": 13,
            "POSITION": 12,
            "TEXCOORD_0": 14
          },
          "indices": 15,
          "material": 3,
          "mode": 4
        }
      ]
    },
    {
      "name": "BaseballV1_BaseballV1Mat_0",
      "primitives": [
        {
          "attributes": {
            "NORMAL": 17,
            "POSITION": 16,
            "TEXCOORD_0": 18
          },
          "indices": 19,
          "material": 4,
          "mode": 4
        }
      ]
    },
    {
      "name": "BaseballBatV1_BaseballBatV1Mat_0",
      "primitives": [
        {
          "attributes": {
            "NORMAL": 21,
            "POSITION": 20,
            "TEXCOORD_0": 22
          },
          "indices": 23,
          "material": 5,
          "mode": 4
        }
      ]
    },
    {
      "name": "TennisV1_TennisV1Mat_0",
      "primitives": [
        {
          "attributes": {
            "NORMAL": 25,
            "POSITION": 24,
            "TEXCOORD_0": 26
          },
          "indices": 27,
          "material": 6,
          "mode": 4
        }
      ]
    },
    {
      "name": "TennisRacketV1_TennisRacketV1Mat_0",
      "primitives": [
        {
          "attributes": {
            "NORMAL": 29,
            "POSITION": 28,
            "TEXCOORD_0": 30
          },
          "indices": 31,
          "material": 7,
          "mode": 4
        }
      ]
    },
    {
      "name": "BowlingV1_BowlingV1Mat_0",
      "primitives": [
        {
          "attributes": {
            "NORMAL": 33,
            "POSITION": 32,
            "TEXCOORD_0": 34
          },
          "indices": 35,
          "material": 8,
          "mode": 4
        }
      ]
    }
  ],
  "nodes": [
    {
      "children": [
        1
      ],
      "matrix": [
        0.20000000298023224,
        0.0,
        0.0,
        0.0,
        0.0,
        4.440892164675075e-17,
        -0.20000000298023224,
        0.0,
        0.0,
        0.20000000298023224,
        4.440892164675075e-17,
        0.0,
        0.0,
        0.0,
        0.0,
        1.0
      ],
      "name": "Sketchfab_model"
    },
    {
      "children": [
        2
      ],
      "matrix": [
        0.009999999776482582,
        0.0,
        0.0,
        0.0,
        0.0,
        0.0,
        0.009999999776482582,
        0.0,
        0.0,
        -0.009999999776482582,
        0.0,
        0.0,
        0.0,
        0.0,
        0.0,
        1.0
      ],
      "name": "4ea6629845f149238cec7f501d6d0bc8.fbx"
    },
    {
      "children": [
        3,
        5,
        7,
        9,
        11,
        13,
        15,
        17,
        19
      ],
      "name": "RootNode"
    },
    {
      "children": [
        4
      ],
      "matrix": [
        93.9000015258789,
        0.0,
        0.0,
        0.0,
        0.0,
        -1.52982520434902e-05,
        -93.90000152587767,
        0.0,
        0.0,
        93.90000152587767,
        -1.52982520434902e-05,
        0.0,
        0.0,
        0.0,
        -300.0,
        1.0
      ],
      "name": "BasketV1"
    },
    {
      "mesh": 0,
      "name": "BasketV1_BasketV1Mat_0"
    },
    {
      "children": [
        6
      ],
      "matrix": [
        89.0999984741211,
        0.0,
        0.0,
        0.0,
        -0.0,
        -1.4516232285214951e-05,
        -89.09999847411991,
        0.0,
        0.0,
        89.09999847411991,
        -1.4516232285214951e-05,
        0.0,
        -300.0,
        0.0,
        0.0,
        1.0
      ],
      "name": "SoccerV1"
    },
    {
      "mesh": 1,
      "name": "SoccerV1_SoccerV1Mat_0"
    },
    {
      "children": [
        8
      ],
      "matrix": [
        84.3499984741211,
        0.0,
        0.0,
        0.0,
        0.0,
        -1.3742359058103752e-05,
        -84.34999847411999,
        0.0,
        0.0,
        84.34999847411999,
        -1.3742359058103752e-05,
        0.0,
        0.0,
        0.0,
        0.0,
        1.0
      ],
      "name": "VolleyballV1"
    },
    {
      "mesh": 2,
      "name": "VolleyballV1_VolleyballV1Mat_0"
    },
    {
      "children": [
        10
      ],
      "matrix": [
        115.0,
        0.0,
        0.0,
        0.0,
        0.0,
        -1.8735878130060613e-05,
        -114.99999999999848,
        0.0,
        0.0,
        114.99999999999848,
        -1.8735878130060613e-05,
        0.0,
        300.0,
        0.0,
        0.0,
        1.0
      ],
      "name": "AFootballV1"
    },
    {
      "mesh": 3,
      "name": "AFootballV1_AFootballV1Mat_0"
    },
    {
      "children": [
        12
      ],
      "matrix": [
        28.639999389648438,
        0.0,
        0.0,
        0.0,
        -0.0,
        -4.6660481583431604e-06,
        -28.639999389648057,
        0.0,
        0.0,
        28.639999389648057,
        -4.6660481583431604e-06,
        0.0,
        -300.0,
        0.0,
        -200.0,
        1.0
      ],
      "name": "BaseballV1"
    },
    {
      "mesh": 4,
      "name": "BaseballV1_BaseballV1Mat_0"
    },
    {
      "children": [
        14
      ],
      "matrix": [
        360.0,
        0.0,
        0.0,
        0.0,
        -0.0,
        -5.865144458105931e-05,
        -359.9999999999952,
        0.0,
        0.0,
        359.9999999999952,
        -5.865144458105931e-05,
        0.0,
        -300.0,
        0.0,
        -300.0,
        1.0
      ],
      "name": "BaseballBatV1"
    },
    {
      "mesh": 5,
      "name": "BaseballBatV1_BaseballBatV1Mat_0"
    },
    {
      "children": [
        16
      ],
      "matrix": [
        26.999998092651367,
        0.0,
        0.0,
        0.0,
        0.0,
        -4.398858032832913e-06,
        -26.999998092651012,
        0.0,
        0.0,
        26.999998092651012,
        -4.398858032832913e-06,
        0.0,
        300.0,
        0.0,
        -200.0,
        1.0
      ],
      "name": "TennisV1"
    },
    {
      "mesh": 6,
      "name": "TennisV1_TennisV1Mat_0"
    },
    {
      "children": [
        18
      ],
      "matrix": [
        270.0,
        0.0,
        0.0,
        0.0,
        0.0,
        -4.398858343579448e-05,
        -269.9999999999964,
        0.0,
        0.0,
        269.9999999999964,
        -4.398858343579448e-05,
        0.0,
        300.0,
        0.0,
        -300.0,
        1.0
      ],
      "name": "TennisRacketV1"
    },
    {
      "mesh": 7,
      "name": "TennisRacketV1_TennisRacketV1Mat_0"
    },
    {
      "children": [
        20
      ],
      "matrix": [
        85.0,
        0.0,
        0.0,
        0.0,
        0.0,
        -1.384825774830567e-05,
        -84.99999999999888,
        0.0,
        0.0,
        84.99999999999888,
        -1.384825774830567e-05,
        0.0,
        0.0,
        0.0,
        300.0000915527344,
        1.0
      ],
      "name": "BowlingV1"
    },
    {
      "mesh": 8,
      "name": "BowlingV1_BowlingV1Mat_0"
    }
  ],
  "samplers": [
    {
      "magFilter": 9729,
      "minFilter": 9987,
      "wrapS": 10497,
      "wrapT": 10497
    }
  ],
  "scene": 0,
  "scenes": [
    {
      "name": "Sketchfab_Scene",
      "nodes": [
        0
      ]
    }
  ],
  "textures": [
    {
      "sampler": 0,
      "source": 0
    },
    {
      "sampler": 0,
      "source": 1
    },
    {
      "sampler": 0,
      "source": 2
    },
    {
      "sampler": 0,
      "source": 3
    },
    {
      "sampler": 0,
      "source": 4
    },
    {
      "sampler": 0,
      "source": 5
    },
    {
      "sampler": 0,
      "source": 6
    },
    {
      "sampler": 0,
      "source": 7
    },
    {
      "sampler": 0,
      "source": 8
    }
  ]
}
