{
	"asset":{
		"generator":"Khronos glTF Blender I/O v3.5.30",
		"version":"2.0"
	},
	"scene":0,
	"scenes":[
		{
			"name":"Scene",
			"nodes":[
				0
			]
		}
	],
	"nodes":[
		{
			"mesh":0,
			"name":"Cube_Material_0",
			"rotation":[
				-0.70710688829422,
				0,
				0,
				0.7071066498756409
			],
			"scale":[
				0.35999998450279236,
				0.3600000739097595,
				0.3600000739097595
			],
			"translation":[
				0.22751498222351074,
				1.056198000907898,
				0.17977552115917206
			]
		}
	],
	"materials":[
		{
			"doubleSided":true,
			"name":"Material.001",
			"pbrMetallicRoughness":{
				"metallicFactor":0,
				"roughnessFactor":0.823941707611084
			}
		}
	],
	"meshes":[
		{
			"name":"Cube_Material_0",
			"primitives":[
				{
					"attributes":{
						"POSITION":0,
						"TEXCOORD_0":1,
						"NORMAL":2
					},
					"indices":3,
					"material":0
				}
			]
		}
	],
	"accessors":[
		{
			"bufferView":0,
			"componentType":5126,
			"count":888,
			"max":[
				4.097886085510254,
				0.15218190848827362,
				2.928816795349121
			],
			"min":[
				-4.102113246917725,
				-0.14781828224658966,
				-2.9711837768554688
			],
			"type":"VEC3"
		},
		{
			"bufferView":1,
			"componentType":5126,
			"count":888,
			"type":"VEC2"
		},
		{
			"bufferView":2,
			"componentType":5126,
			"count":888,
			"type":"VEC3"
		},
		{
			"bufferView":3,
			"componentType":5123,
			"count":1332,
			"type":"SCALAR"
		}
	],
	"bufferViews":[
		{
			"buffer":0,
			"byteLength":10656,
			"byteOffset":0,
			"target":34962
		},
		{
			"buffer":0,
			"byteLength":7104,
			"byteOffset":10656,
			"target":34962
		},
		{
			"buffer":0,
			"byteLength":10656,
			"byteOffset":17760,
			"target":34962
		},
		{
			"buffer":0,
			"byteLength":2664,
			"byteOffset":28416,
			"target":34963
		}
	],
	"buffers":[
		{
			"byteLength":31080,
			"uri":"VinylBOXimpostorSET.bin"
		}
	]
}
