{
  "accessors": [
    {
      "bufferView": 2,
      "componentType": 5126,
      "count": 210,
      "max": [
        2.600001096725464,
        7.199999809265137,
        5.699999809265137
      ],
      "min": [
        -2.600001096725464,
        -7.099999904632568,
        0.0
      ],
      "type": "VEC3"
    },
    {
      "bufferView": 2,
      "byteOffset": 2520,
      "componentType": 5126,
      "count": 210,
      "max": [
        1.0,
        1.0,
        0.9634506106376648
      ],
      "min": [
        -1.0,
        -1.0,
        -0.9634506106376648
      ],
      "type": "VEC3"
    },
    {
      "bufferView": 3,
      "componentType": 5126,
      "count": 210,
      "max": [
        0.9634506106376648,
        0.013423549011349678,
        1.0,
        1.0
      ],
      "min": [
        -0.9634506106376648,
        -0.017017778009176254,
        -1.0,
        -1.0
      ],
      "type": "VEC4"
    },
    {
      "bufferView": 1,
      "componentType": 5126,
      "count": 210,
      "max": [
        0.9789040088653564,
        1.714967966079712
      ],
      "min": [
        0.005007999949157238,
        -0.6175559759140015
      ],
      "type": "VEC2"
    },
    {
      "bufferView": 0,
      "componentType": 5125,
      "count": 354,
      "type": "SCALAR"
    },
    {
      "bufferView": 2,
      "byteOffset": 5040,
      "componentType": 5126,
      "count": 4781,
      "max": [
        2.8025870323181152,
        7.400000095367432,
        6.175387859344482
      ],
      "min": [
        -2.6099929809570313,
        -7.119999885559082,
        -0.0
      ],
      "type": "VEC3"
    },
    {
      "bufferView": 2,
      "byteOffset": 62412,
      "componentType": 5126,
      "count": 4781,
      "max": [
        1.0,
        1.0,
        1.0
      ],
      "min": [
        -1.0,
        -1.0,
        -1.0
      ],
      "type": "VEC3"
    },
    {
      "bufferView": 3,
      "byteOffset": 3360,
      "componentType": 5126,
      "count": 4781,
      "max": [
        1.0,
        1.0,
        1.0,
        1.0
      ],
      "min": [
        -1.0,
        -1.0,
        -1.0,
        1.0
      ],
      "type": "VEC4"
    },
    {
      "bufferView": 1,
      "byteOffset": 1680,
      "componentType": 5126,
      "count": 4781,
      "max": [
        0.9939690232276917,
        0.9949380159378052
      ],
      "min": [
        0.05537699908018112,
        0.05726800113916397
      ],
      "type": "VEC2"
    },
    {
      "bufferView": 0,
      "byteOffset": 1416,
      "componentType": 5125,
      "count": 7278,
      "type": "SCALAR"
    }
  ],
  "asset": {
    "extras": {
      "author": "ahedahedov (https://sketchfab.com/ahedahedov)",
      "license": "CC-BY-4.0 (http://creativecommons.org/licenses/by/4.0/)",
      "source": "https://sketchfab.com/3d-models/low-poly-city-house-04f23aeef2c34efcb00e32e626dc19f0",
      "title": "Low Poly City House"
    },
    "generator": "Sketchfab-12.68.0",
    "version": "2.0"
  },
  "bufferViews": [
    {
      "buffer": 0,
      "byteLength": 30528,
      "name": "floatBufferViews",
      "target": 34963
    },
    {
      "buffer": 0,
      "byteLength": 39928,
      "byteOffset": 30528,
      "byteStride": 8,
      "name": "floatBufferViews",
      "target": 34962
    },
    {
      "buffer": 0,
      "byteLength": 119784,
      "byteOffset": 70456,
      "byteStride": 12,
      "name": "floatBufferViews",
      "target": 34962
    },
    {
      "buffer": 0,
      "byteLength": 79856,
      "byteOffset": 190240,
      "byteStride": 16,
      "name": "floatBufferViews",
      "target": 34962
    }
  ],
  "buffers": [
    {
      "byteLength": 270096,
      "uri": "scene.bin"
    }
  ],
  "extensionsRequired": [
    "KHR_materials_pbrSpecularGlossiness"
  ],
  "extensionsUsed": [
    "KHR_materials_pbrSpecularGlossiness"
  ],
  "images": [
    {
      "uri": "textures/House_diffuse.png"
    },
    {
      "uri": "textures/House_specularGlossiness.png"
    },
    {
      "uri": "textures/House_normal.png"
    },
    {
      "uri": "textures/House_occlusion.png"
    },
    {
      "uri": "textures/Windows_diffuse.png"
    },
    {
      "uri": "textures/Windows_specularGlossiness.png"
    },
    {
      "uri": "textures/Windows_normal.png"
    }
  ],
  "materials": [
    {
      "doubleSided": true,
      "extensions": {
        "KHR_materials_pbrSpecularGlossiness": {
          "diffuseFactor": [
            1.0,
            1.0,
            1.0,
            1.0
          ],
          "diffuseTexture": {
            "index": 0
          },
          "glossinessFactor": 0.19364916731037085,
          "specularFactor": [
            0.05,
            0.05,
            0.05
          ],
          "specularGlossinessTexture": {
            "index": 1
          }
        }
      },
      "name": "House",
      "normalTexture": {
        "index": 2
      },
      "occlusionTexture": {
        "index": 3
      }
    },
    {
      "doubleSided": true,
      "extensions": {
        "KHR_materials_pbrSpecularGlossiness": {
          "diffuseFactor": [
            1.0,
            1.0,
            1.0,
            1.0
          ],
          "diffuseTexture": {
            "index": 4
          },
          "glossinessFactor": 0.19364916731037085,
          "specularFactor": [
            0.05,
            0.05,
            0.05
          ],
          "specularGlossinessTexture": {
            "index": 5
          }
        }
      },
      "name": "Windows",
      "normalTexture": {
        "index": 6
      }
    }
  ],
  "meshes": [
    {
      "name": "Object_0",
      "primitives": [
        {
          "attributes": {
            "NORMAL": 1,
            "POSITION": 0,
            "TANGENT": 2,
            "TEXCOORD_0": 3
          },
          "indices": 4,
          "material": 0,
          "mode": 4
        }
      ]
    },
    {
      "name": "Object_1",
      "primitives": [
        {
          "attributes": {
            "NORMAL": 6,
            "POSITION": 5,
            "TANGENT": 7,
            "TEXCOORD_0": 8
          },
          "indices": 9,
          "material": 1,
          "mode": 4
        }
      ]
    }
  ],
  "nodes": [
    {
      "children": [
        1
      ],
      "matrix": [
        1.0,
        0.0,
        0.0,
        0.0,
        0.0,
        2.220446049250313e-16,
        -1.0,
        0.0,
        0.0,
        1.0,
        2.220446049250313e-16,
        0.0,
        0.0,
        0.0,
        0.0,
        1.0
      ],
      "name": "Sketchfab_model"
    },
    {
      "children": [
        2,
        3
      ],
      "name": "house_001.obj.cleaner.materialmerger.gles"
    },
    {
      "mesh": 0,
      "name": "Object_2"
    },
    {
      "mesh": 1,
      "name": "Object_3"
    }
  ],
  "samplers": [
    {
      "magFilter": 9729,
      "minFilter": 9987,
      "wrapS": 10497,
      "wrapT": 10497
    }
  ],
  "scene": 0,
  "scenes": [
    {
      "name": "Sketchfab_Scene",
      "nodes": [
        0
      ]
    }
  ],
  "textures": [
    {
      "sampler": 0,
      "source": 0
    },
    {
      "sampler": 0,
      "source": 1
    },
    {
      "sampler": 0,
      "source": 2
    },
    {
      "sampler": 0,
      "source": 3
    },
    {
      "sampler": 0,
      "source": 4
    },
    {
      "sampler": 0,
      "source": 5
    },
    {
      "sampler": 0,
      "source": 6
    }
  ]
}
